<svg width="109" height="49" viewBox="0 0 109 49" fill="none" xmlns="http://www.w3.org/2000/svg">
  <path d="M107.251 0.268066H1.73787C1.27696 0.268066 0.834924 0.451159 0.509011 0.777072C0.183098 1.10299 0 1.54502 0 2.00593V47.1709C0 47.6318 0.183098 48.0738 0.509011 48.3997C0.834924 48.7256 1.27696 48.9087 1.73787 48.9087H36.8513V46.0079H2.87793V3.17213H106.082V46.0079H72.1084V48.9087H107.251C107.712 48.9087 108.154 48.7256 108.48 48.3997C108.806 48.0738 108.989 47.6318 108.989 47.1709V2.00593C108.989 1.54502 108.806 1.10299 108.48 0.777072C108.154 0.451159 107.712 0.268066 107.251 0.268066Z" fill="#FFF"/>
  <path d="M12.7402 38.942V10.2378H18.3491V33.6467H27.9368V38.9583L12.7402 38.942Z" fill="#FFF"/>
  <path d="M66.9457 10.2377C68.0358 10.2224 69.0895 10.6298 69.8857 11.3745C70.2837 11.7201 70.602 12.1478 70.8186 12.6284C71.0352 13.1089 71.1449 13.6307 71.1401 14.1577V35.0219C71.1442 35.5489 71.0342 36.0705 70.8177 36.5509C70.6011 37.0313 70.2832 37.4592 69.8857 37.8051C69.0895 38.5498 68.0358 38.9572 66.9457 38.9419H57.1457C56.0556 38.9572 55.0019 38.5498 54.2057 37.8051C53.8082 37.4592 53.4903 37.0313 53.2738 36.5509C53.0572 36.0705 52.9472 35.5489 52.9513 35.0219V14.1577C52.9466 13.6307 53.0563 13.1089 53.2729 12.6284C53.4894 12.1478 53.8077 11.7201 54.2057 11.3745C55.0019 10.6298 56.0556 10.2224 57.1457 10.2377H66.9457ZM58.2499 15.5461V33.6467H65.8351V15.5461H58.2499Z" fill="#FFF"/>
  <path d="M82.8386 23.4547V38.942H77.2461V10.2378H81.924L90.4598 26.0615C90.4657 26.0836 90.4794 26.1027 90.4983 26.1155C90.5172 26.1282 90.5401 26.1337 90.5628 26.131C90.5855 26.1282 90.6063 26.1173 90.6216 26.1003C90.6369 26.0834 90.6455 26.0615 90.646 26.0387V10.2378H96.1993V38.942H91.4234L83.0118 23.4319C83.006 23.4114 82.9931 23.3937 82.9754 23.382C82.9577 23.3703 82.9363 23.3654 82.9153 23.3682C82.8942 23.371 82.8749 23.3813 82.8608 23.3972C82.8467 23.413 82.8388 23.4335 82.8386 23.4547Z" fill="#FFF"/>
  <path d="M47.9273 15.546V10.2376H43.8113V7.82031L38.0718 10.2376H32.084V38.9418H47.9273V33.6302H37.7843V27.2537H45.8987V21.9258H37.7843V15.546H47.9273Z" fill="#FFF"/>
  <path d="M39.2715 46.0112H40.833L41.2348 46.462V48.4645L40.7905 48.9088H39.2715V46.0112ZM39.755 46.4555V48.4612H40.5684L40.7709 48.2489V46.6874L40.5684 46.4555H39.755Z" fill="#FFF"/>
  <path d="M42.5703 46.0112H44.3082V46.4555H43.0538V47.2134H44.1318V47.6642H43.0538V48.422H44.3082V48.9088H42.5703V46.0112Z" fill="#FFF"/>
  <path d="M47.7979 47.2194L47.2981 47.6931H46.3181V48.8985H45.8379V46.001H47.3144L47.7979 46.4844V47.2194ZM47.3144 47.0202V46.6935L47.1936 46.4942H46.3214V47.2194H47.1936L47.3144 47.0202Z" fill="#FFF"/>
  <path d="M50.8519 48.4253L50.3717 48.9088H49.3917L48.9082 48.4253V46.0112H49.3917V48.2293L49.5877 48.4253H50.1593L50.3586 48.2293V46.0112H50.8388L50.8519 48.4253Z" fill="#FFF"/>
  <path d="M52.6964 46.0112V48.9088H52.2031V46.0112H52.6964Z" fill="#FFF"/>
  <path d="M56.0915 48.425L55.608 48.9084H54.628L54.1445 48.425V48.0395H54.628V48.229L54.8273 48.425H55.4218L55.6178 48.229V47.9023L55.4218 47.7063H54.628L54.1445 47.2228V46.4976L54.628 46.0142H55.608L56.0915 46.4976V46.8602H55.608V46.6969L55.412 46.4976H54.8175L54.6182 46.6969V47.0236L54.8175 47.2228H55.608L56.0915 47.7063V48.425Z" fill="#FFF"/>
  <path d="M59.1523 46.0112H59.822V48.9088H59.4169V46.4555H59.1523V46.0112Z" fill="#FFF"/>
  <path d="M61.6707 46.0112H62.7846L63.2256 46.4555V47.2624L63.0525 47.4845L63.2256 47.6576V48.471L62.7846 48.9088H61.7589L61.2656 48.471V47.6936L61.4878 47.4257L61.2656 47.2036V46.4457L61.6707 46.0112ZM61.7164 46.7266V46.9912L61.9386 47.2134H62.5919L62.7716 47.037V46.6842L62.5462 46.462H61.968L61.7164 46.7266ZM61.7164 47.9386V48.2032L61.981 48.4645H62.5168L62.7846 48.1934V47.9288L62.5168 47.6576H62.0104L61.7164 47.9386Z" fill="#FFF"/>
  <path d="M66.1238 48.9088H65.0556L64.6113 48.4743V48.0202H65.0556V48.1934L65.3169 48.471H65.8592L66.1303 48.1901V47.5041L65.8592 47.7066H65.0556L64.6113 47.2624V46.4555L65.0556 46.0112H66.1303L66.5746 46.4555V48.4743L66.1238 48.9088ZM66.1238 46.9161V46.7136L65.8625 46.449H65.3104L65.0491 46.7136V46.988L65.3104 47.2493H65.7841L66.1238 46.9161Z" fill="#FFF"/>
  <path d="M68.2236 46.0112H69.2885L69.7393 46.4555V47.2134L69.5596 47.442V47.4812L69.6968 47.6576V48.471L69.246 48.9088H68.2236L67.7793 48.471V48.0594H68.2236V48.2685L68.4359 48.4645H69.0533L69.2885 48.2293V47.87L69.0631 47.6576H68.4359V47.2134H69.0631L69.2885 46.9814V46.6776L69.0631 46.4555H68.4359L68.2236 46.6678V46.8312H67.7793V46.4555L68.2236 46.0112Z" fill="#FFF"/>
</svg>
